<svg xmlns="http://www.w3.org/2000/svg" version="1.1" xmlns:xlink="http://www.w3.org/1999/xlink" xmlns:svgjs="http://svgjs.dev/svgjs" width="100%" height="100%" viewBox="0 0 1000 600"><rect width="1000" height="600" x="0" y="0" fill="grey"/><g><rect width="333.3333333333333" height="333.3333333333333" rx="13.333333333333334" ry="13.333333333333334" y="172.84083374691303" fill="white" transform="matrix(0.8299107785074198,0,0,0.8299107785074198,0,18.239068008342116)" x="150.61863708496094"/><path d="M304.63755298303806 414.507505482455L263.5619015065977 414.507505482455Q258.8928706193476 414.507505482455 256.4401518621213 412.05478672522867Q253.987433104895 409.60206796800236 253.987433104895 404.9330370807523L253.987433104895 404.9330370807523L253.987433104895 274.08196892414924Q253.987433104895 269.41293803689916 256.4401518621213 266.96021927967286Q258.8928706193476 264.50750052244655 263.5619015065977 264.50750052244655L263.5619015065977 264.50750052244655L304.63755298303806 264.50750052244655Q341.01462274382817 264.50750052244655 360.8136777720405 283.65643732585187Q380.58318197185247 302.80537412925725 380.58318197185247 339.38929968884946L380.58318197185247 339.38929968884946Q380.58318197185247 357.71081329704595 375.58909197219884 371.6292534735952Q370.59500197254533 385.57724447854474 360.8136777720405 395.15171288024743Q351.0323535715356 404.7261812819501 336.96615925298477 409.60206796800236Q322.9295157628343 414.507505482455 304.63755298303806 414.507505482455L304.63755298303806 414.507505482455ZM271.45197268948226 279.40111803620624L271.45197268948226 399.6138879686953L303.36686736182446 399.6138879686953Q318.2604848755842 399.6138879686953 329.2238422121018 395.77228027665404Q340.15764872021896 391.9602234130132 347.5158049918979 384.51341465613336Q354.8444104351764 377.0666058992535 358.47916232841544 365.68953696513154Q362.0843633932541 354.2829172026092 362.0843633932541 339.38929968884946L362.0843633932541 339.38929968884946Q362.0843633932541 309.39520886252785 347.3976016782966 294.4129388635672Q332.71083996333914 279.40111803620624 303.36686736182446 279.40111803620624L303.36686736182446 279.40111803620624L271.45197268948226 279.40111803620624Z " fill="grey" transform="matrix(0.8299107785074198,0,0,0.8299107785074198,0,18.239068008342116)"/><path d="M578.2947434973719 413.669512243971L578.2947434973719 413.669512243971Q574.1336955175044 413.669512243971 572.0531715275706 411.27113042224175Q569.9726475376368 408.8727486005126 569.9726475376368 404.509427454957L569.9726475376368 404.509427454957L569.9726475376368 319.4102170333598Q569.9726475376368 315.0468958878042 572.0531715275706 312.7640987321824Q574.1336955175044 310.4813015765606 578.2947434973719 310.4813015765606L578.2947434973719 310.4813015765606Q582.2535183115515 310.4813015765606 584.5363154671734 312.7640987321824Q586.819112622795 315.0468958878042 586.819112622795 319.4102170333598L586.819112622795 319.4102170333598L586.819112622795 404.509427454957Q586.819112622795 408.8727486005126 584.6519001332807 411.27113042224175Q582.4557914772395 413.669512243971 578.2947434973719 413.669512243971ZM578.2947434973719 287.16209518938615L578.2947434973719 287.16209518938615Q573.0934335225375 287.16209518938615 570.1749207033248 284.3591670362809Q567.2853040506391 281.55623888317564 567.2853040506391 276.7594752397172L567.2853040506391 276.7594752397172Q567.2853040506391 271.7893345970976 570.1749207033248 269.1886796096804Q573.0934335225375 266.58802462226316 578.2947434973719 266.58802462226316L578.2947434973719 266.58802462226316Q583.6983266378944 266.58802462226316 586.5301509575265 269.1886796096804Q589.3330791106317 271.7893345970976 589.3330791106317 276.7594752397172L589.3330791106317 276.7594752397172Q589.3330791106317 281.55623888317564 586.5301509575265 284.3591670362809Q583.6983266378944 287.16209518938615 578.2947434973719 287.16209518938615ZM656.7478356177917 414.5075010732499L656.7478356177917 414.5075010732499Q643.2244296832221 414.5075010732499 633.1107713988217 408.06365593776053Q623.0260092809483 401.5909146357443 617.5068414743184 389.8590710258399Q612.0165698342154 378.09833124940866 612.0165698342154 362.06095882700237L612.0165698342154 362.06095882700237Q612.0165698342154 345.850209405435 617.5068414743184 334.08946962900376Q623.0260092809483 322.32872985257245 633.1107713988217 316.00046938319053Q643.2244296832221 309.64331274728175 656.7478356177917 309.64331274728175L656.7478356177917 309.64331274728175Q670.4735147180494 309.64331274728175 680.2404190041274 316.520600380674Q690.0362194567323 323.36899184753935 693.359278607321 335.0141469578632L693.359278607321 335.0141469578632L691.0764814516992 335.0141469578632L691.0764814516992 273.0318697577525Q691.0764814516992 268.87082177788494 693.2436939412136 266.67471312184375Q695.4398025972548 264.50750063232937 699.6008505771223 264.50750063232937L699.6008505771223 264.50750063232937Q703.5596253913019 264.50750063232937 705.7268378808162 266.67471312184375Q707.9229465368575 268.87082177788494 707.9229465368575 273.0318697577525L707.9229465368575 273.0318697577525L707.9229465368575 405.34741628423586Q707.9229465368575 409.50846426410345 705.8424225469237 411.79126141972523Q703.7618985569899 414.074058575347 699.6008505771223 414.074058575347L699.6008505771223 414.074058575347Q695.6420757629428 414.074058575347 693.4459671069015 411.79126141972523Q691.2787546173872 409.50846426410345 691.2787546173872 405.34741628423586L691.2787546173872 405.34741628423586L691.2787546173872 385.58243837986487L693.561551773009 388.5009511990776Q690.2384926224204 400.3483794750894 680.3560036702348 407.42794027416966Q670.4735147180494 414.5075010732499 656.7478356177917 414.5075010732499ZM660.2731679340684 400.9840951386803L660.2731679340684 400.9840951386803Q669.6355258887704 400.9840951386803 676.7150866878507 396.3896046609098Q683.7946474869309 391.82401034966625 687.637837635003 383.0973680585551Q691.4810277830752 374.3418296009171 691.4810277830752 362.06095882700237L691.4810277830752 362.06095882700237Q691.4810277830752 343.13396975191034 683.0433471572327 333.16479230014426Q674.6345626979169 323.16671868185136 660.2731679340684 323.16671868185136L660.2731679340684 323.16671868185136Q650.7085368136784 323.16671868185136 643.7445606807056 327.6456244935144Q636.7516883812059 332.12453030517736 632.9084982331337 340.7355879301811Q629.0653080850617 349.37554172171167 629.0653080850617 362.06095882700237L629.0653080850617 362.06095882700237Q629.0653080850617 380.78567473640646 637.5896772104848 390.8993330208068Q646.1140463359079 400.9840951386803 660.2731679340684 400.9840951386803ZM748.0597218426634 414.074058575347L748.0597218426634 414.074058575347Q743.8986738627958 414.074058575347 741.7314613732815 411.79126141972523Q739.5353527172402 409.50846426410345 739.5353527172402 405.34741628423586L739.5353527172402 405.34741628423586L739.5353527172402 318.60112437060775Q739.5353527172402 314.4400763907402 741.615876707174 312.24396773469897Q743.6964006971078 310.0478590786578 747.6551755112873 310.0478590786578L747.6551755112873 310.0478590786578Q751.6139503254669 310.0478590786578 753.7811628149813 312.24396773469897Q755.9772714710225 314.4400763907402 755.9772714710225 318.60112437060775L755.9772714710225 318.60112437060775L755.9772714710225 335.44758945576604L753.8967474810887 335.44758945576604Q757.2198066316774 323.16671868185136 766.5821645863795 316.520600380674Q775.9445225410815 309.84558591296974 789.6702016413391 309.44103958159377L789.6702016413391 309.44103958159377Q792.7909876262397 309.23876641590573 794.6692384504855 310.79915940835605Q796.5474892747313 312.3595524008064 796.7497624404193 316.0871578827711L796.7497624404193 316.0871578827711Q796.9520356061073 319.64138636557465 795.1026809483884 321.72191035550844Q793.2244301241426 323.80243434544224 789.2656553099631 324.20698067681826L789.2656553099631 324.20698067681826L785.9425961593744 324.6115270081943Q771.7834745612139 325.88295833537603 764.1837827646502 333.6849232976277Q756.6129871346134 341.48688825987944 756.6129871346134 355.010294194449L756.6129871346134 355.010294194449L756.6129871346134 405.34741628423586Q756.6129871346134 409.50846426410345 754.4168784785722 411.79126141972523Q752.220769822531 414.074058575347 748.0597218426634 414.074058575347ZM822.3517659832156 413.669512243971L822.3517659832156 413.669512243971Q818.1907180033481 413.669512243971 816.1101940134142 411.27113042224175Q814.0296700234805 408.8727486005126 814.0296700234805 404.509427454957L814.0296700234805 404.509427454957L814.0296700234805 319.4102170333598Q814.0296700234805 315.0468958878042 816.1101940134142 312.7640987321824Q818.1907180033481 310.4813015765606 822.3517659832156 310.4813015765606L822.3517659832156 310.4813015765606Q826.3105407973952 310.4813015765606 828.593337953017 312.7640987321824Q830.8761351086388 315.0468958878042 830.8761351086388 319.4102170333598L830.8761351086388 319.4102170333598L830.8761351086388 404.509427454957Q830.8761351086388 408.8727486005126 828.6800264525975 411.27113042224175Q826.5128139630832 413.669512243971 822.3517659832156 413.669512243971ZM822.3517659832156 287.16209518938615L822.3517659832156 287.16209518938615Q817.1504560083812 287.16209518938615 814.2319431891685 284.3591670362809Q811.3134303699558 281.55623888317564 811.3134303699558 276.7594752397172L811.3134303699558 276.7594752397172Q811.3134303699558 271.7893345970976 814.2319431891685 269.1886796096804Q817.1504560083812 266.58802462226316 822.3517659832156 266.58802462226316L822.3517659832156 266.58802462226316Q827.7553491237381 266.58802462226316 830.5582772768433 269.1886796096804Q833.3612054299485 271.7893345970976 833.3612054299485 276.7594752397172L833.3612054299485 276.7594752397172Q833.3612054299485 281.55623888317564 830.5582772768433 284.3591670362809Q827.7553491237381 287.16209518938615 822.3517659832156 287.16209518938615ZM899.9379731078297 414.074058575347L899.9379731078297 414.074058575347Q896.412640791553 414.074058575347 893.6964011380282 412.10911925152067Q891.0090576510305 410.1441799276943 889.1308068267847 405.98313194782673L889.1308068267847 405.98313194782673L853.1261833343194 321.9241835211964Q851.6813750079766 318.8033975362958 852.0859213393526 316.0871578827711Q852.5193638372555 313.3998143957733 854.5998878271894 311.72383673721555Q856.6804118171231 310.0478590786578 860.4080172990878 310.0478590786578L860.4080172990878 310.0478590786578Q863.7599726162033 310.0478590786578 865.6093272739222 311.5215635715275Q867.4875780981681 312.96637189787043 868.9612825910378 316.722873546362L868.9612825910378 316.722873546362L903.0587590927303 400.14610630940143L897.4529027865199 400.14610630940143L932.1860949518034 316.722873546362Q933.6597994446731 312.96637189787043 935.5380502689188 311.5215635715275Q937.3874049266378 310.0478590786578 940.9416334094414 310.0478590786578L940.9416334094414 310.0478590786578Q944.26469256003 310.0478590786578 946.0273587181684 311.72383673721555Q947.7900248763067 313.3998143957733 948.1078827081021 316.00046938319053Q948.4257405398976 318.60112437060775 947.1832053792427 321.72191035550844L947.1832053792427 321.72191035550844L910.7740355554015 405.98313194782673Q909.3003310625318 410.1441799276943 906.4974029094265 412.10911925152067Q903.6944747563213 414.074058575347 899.9379731078297 414.074058575347ZM1013.5576998914357 414.5075010732499L1013.5576998914357 414.5075010732499Q997.5203274690296 414.5075010732499 985.9907570248131 408.15034443734106Q974.4322904140699 401.82208396795914 968.0751337781612 390.1480326911085Q961.7468733087792 378.5028775807846 961.7468733087792 362.29212815921727L961.7468733087792 362.29212815921727Q961.7468733087792 346.457028902499 967.9884452785807 334.72518529259463Q974.230017248382 322.9644455161633 985.1527681955342 316.2894310484591Q996.0755191426867 309.64331274728175 1010.4369139065352 309.64331274728175L1010.4369139065352 309.64331274728175Q1020.6083645239892 309.64331274728175 1028.7281873180364 313.0819565639779Q1036.8480101120836 316.520600380674 1042.5694510844014 322.9644455161633Q1048.2908920567193 329.4082906516527 1051.2960933755126 338.5683754406667Q1054.3301908608328 347.72846022968076 1054.3301908608328 359.1713421743166L1054.3301908608328 359.1713421743166Q1054.3301908608328 362.49440132490525 1052.4519400365868 364.05479431735563Q1050.573689212341 365.61518730980595 1047.0483568960644 365.61518730980595L1047.0483568960644 365.61518730980595L974.6345635797579 365.61518730980595L974.6345635797579 354.57685169654616L1043.0895820818848 354.57685169654616L1039.766522931296 357.2930913500708Q1039.766522931296 346.052482571123 1036.4434637807074 338.2505176088713Q1033.091508463592 330.4485526466196 1026.76324799421 326.287504666752Q1020.4060913583012 322.12645668688447 1010.8414602379112 322.12645668688447L1010.8414602379112 322.12645668688447Q1000.2365671225542 322.12645668688447 992.8391484916785 327.00990882992346Q985.4706260273297 331.8933609729625 981.7141243788382 340.53331476449307Q977.9576227303465 349.17326855602363 977.9576227303465 360.61615050065944L977.9576227303465 360.61615050065944L977.9576227303465 361.8586856613144Q977.9576227303465 381.0168440686213 987.2332921854681 390.9860215203874Q996.4800654740627 400.9840951386803 1013.5576998914357 400.9840951386803L1013.5576998914357 400.9840951386803Q1020.6083645239892 400.9840951386803 1027.6012368234888 399.1058443144345Q1034.5652129564617 397.2275934901887 1041.211331257639 392.8642723446331L1041.211331257639 392.8642723446331Q1044.1298440768517 390.9860215203874 1046.5282258985808 391.1016061864948Q1048.9266077203101 391.1882946860754 1050.371416046653 392.5464145128377Q1051.816224372996 393.90453433960005 1052.3363553704794 395.8694736634264Q1052.8564863679628 397.8633091537796 1051.9318090391034 400.14610630940143Q1051.0071317102438 402.4289034650232 1048.2908920567193 404.1048811235809L1048.2908920567193 404.1048811235809Q1041.4136044233271 409.10391793272737 1032.0512464686249 411.79126141972523Q1022.688888513923 414.5075010732499 1013.5576998914357 414.5075010732499Z " fill="white" transform="matrix(0.8299107785074198,0,0,0.8299107785074198,0,18.239068008342116)"/></g></svg>